<?xml version="1.0" encoding="UTF-8"?>
<svg width="70px" height="90px" viewBox="0 0 70 90" version="1.1" xmlns="http://www.w3.org/2000/svg" xmlns:xlink="http://www.w3.org/1999/xlink">
    <!-- Generator: Sketch 58 (84663) - https://sketch.com -->
    <title>Group</title>
    <desc>Created with Sketch.</desc>
    <g id="Page-1" stroke="none" stroke-width="1" fill="none" fill-rule="evenodd">
        <g id="Artboard" transform="translate(-191.000000, -133.000000)">
            <g id="Group" transform="translate(193.000000, 135.000000)">
                <path d="M5,0 L50.2857143,0 L50.2857143,0 L50.2857143,62.6415094 L0,62.6415094 L0,5 C-3.38176876e-16,2.23857625 2.23857625,5.07265313e-16 5,0 Z" id="Rectangle" stroke="#4E4E4E" stroke-width="4" stroke-linejoin="round"></path>
                <path d="M65.2142857,76.7358491 L14.1428571,76.7358491" id="Line-2" stroke="#4E4E4E" stroke-width="4" stroke-linecap="round" stroke-linejoin="round"></path>
                <polyline id="Line" stroke="#4E4E4E" stroke-width="4" stroke-linecap="round" stroke-linejoin="round" points="50.2857143 0 66 14.8773585 66 76.7358491 50.2857143 62.6415094"></polyline>
                <path d="M14.1185984,62.6172507 C12.9945325,70.8082413 8.29641928,75.522527 0.0242587601,76.7601078 L0.0242587601,76.7601078" id="Path" stroke="#4E4E4E" stroke-width="4" transform="translate(7.071429, 69.688679) rotate(-270.000000) translate(-7.071429, -69.688679) "></path>
                <path d="M25.140934,14.8773585 C14.6660256,18.0489708 9.42857143,19.634777 9.42857143,19.634777 C9.47161679,31.5785419 9.42857143,41.8551591 25.2741926,50.105344 C40.8532611,41.8551591 40.8962003,31.5588794 40.8532611,19.634777 C40.8532611,19.634777 35.6158188,18.0489708 25.140934,14.8773585 Z" id="Path-2" stroke="#4E4E4E" stroke-width="4" stroke-linejoin="round"></path>
                <path d="M33.3595836,25.4618935 C34.9518514,27.0541614 34.9603987,29.6466407 33.4169827,31.3545511 L33.257469,31.5223238 L31.1012857,33.6785849 L31.2032874,33.7807346 L25.2449717,39.7390503 L25.1422857,39.6365849 L25.0407426,39.7390503 L19.0824269,33.7807346 L19.1842857,33.6785849 L17.0282453,31.5223238 L16.8823903,31.3695979 C15.325279,29.6618993 15.3291797,27.0588445 16.9261307,25.4618935 C18.5183985,23.8696257 21.1108779,23.8610785 22.8187883,25.4044945 L22.986561,25.5640081 L25.1422857,27.7195849 L27.2991533,25.5640081 L27.4518792,25.4181531 C29.1595779,23.8610419 31.7626326,23.8649426 33.3595836,25.4618935 Z" id="Combined-Shape" fill="#EC6161"></path>
                <path d="M56.5714286,14.8773585 L56.5714286,25.8396226" id="Line-4" stroke="#EC6161" stroke-width="4" stroke-linecap="round"></path>
                <path d="M58.1428571,32.1037736 L58.1428571,43.0660377" id="Line-4-Copy" stroke="#EC6161" stroke-width="4" stroke-linecap="round"></path>
                <path d="M59.7142857,49.3301887 L59.7142857,60.2924528" id="Line-4-Copy-2" stroke="#EC6161" stroke-width="4" stroke-linecap="round"></path>
                <path d="M12,68.9056604 L25.7142857,68.9056604 C26.2665705,68.9056604 26.7142857,69.3533756 26.7142857,69.9056604 L26.7142857,86.1669829 C26.7142857,86.7192676 26.2665705,87.1669829 25.7142857,87.1669829 C25.5376285,87.1669829 25.3641241,87.1201852 25.2114272,87.0313516 L18.8571429,83.3346585 L18.8571429,83.3346585 L12.5028585,87.0313516 C12.0254808,87.3090727 11.4133523,87.147219 11.1356313,86.6698414 C11.0467977,86.5171444 11,86.34364 11,86.1669829 L11,69.9056604 C11,69.3533756 11.4477153,68.9056604 12,68.9056604 Z" id="Rectangle" fill="#EC6161"></path>
            </g>
        </g>
    </g>
</svg>