<?xml version="1.0" encoding="UTF-8"?>
<svg width="96px" height="115px" viewBox="0 0 96 115" version="1.1" xmlns="http://www.w3.org/2000/svg" xmlns:xlink="http://www.w3.org/1999/xlink">
    <!-- Generator: Sketch 58 (84663) - https://sketch.com -->
    <title>Artboard Copy</title>
    <desc>Created with Sketch.</desc>
    <g id="Artboard-Copy" stroke="none" stroke-width="1" fill="none" fill-rule="evenodd">
        <g id="Group" transform="translate(6.000000, 8.000000)">
            <path d="M5,0 L64,0 L64,0 L64,80 L0,80 L0,5 C-3.38176876e-16,2.23857625 2.23857625,5.07265313e-16 5,0 Z" id="Rectangle" stroke="#4E4E4E" stroke-width="4" stroke-linejoin="round"></path>
            <path d="M83,98 L18,98" id="Line-2" stroke="#4E4E4E" stroke-width="4" stroke-linecap="round" stroke-linejoin="round"></path>
            <polyline id="Line" stroke="#4E4E4E" stroke-width="4" stroke-linecap="round" stroke-linejoin="round" points="64 0 84 19 84 98 64 80"></polyline>
            <path d="M18,80 C16.564446,90.4248971 10.564446,96.4248971 0,98 L0,98" id="Path" stroke="#4E4E4E" stroke-width="4" transform="translate(9.000000, 89.000000) rotate(-270.000000) translate(-9.000000, -89.000000) "></path>
            <path d="M31.9975523,19 C18.6658508,23.0504929 12,25.0757393 12,25.0757393 C12.054785,40.3292221 12,53.4535767 32.1671543,63.9899574 C51.9950596,53.4535767 52.0497095,40.304111 51.9950596,25.0757393 C51.9950596,25.0757393 45.3292239,23.0504929 31.9975523,19 Z" id="Path-2" stroke="#4E4E4E" stroke-width="4" stroke-linejoin="round"></path>
            <path d="M42.4576518,32.5423482 C44.5005649,34.5852612 44.5078368,37.9116949 42.5163343,40.0852506 L42.34074,40.2686752 L39.609,42.999 L39.7263271,43.1169118 L32.1169118,50.7263271 L32,50.609 L31.8830882,50.7263271 L24.2736729,43.1169118 L24.39,42.999 L21.65926,40.2686752 L21.5045556,40.1079286 C19.4921372,37.9348912 19.4923169,34.5923794 21.5423482,32.5423482 C23.5852612,30.4994351 26.9116949,30.4921632 29.0852506,32.4836657 L29.2686752,32.65926 L32,35.39 L34.7313248,32.65926 L34.8920714,32.5045556 C37.0651088,30.4921372 40.4076206,30.4923169 42.4576518,32.5423482 Z" id="Combined-Shape" fill="#EC6161"></path>
            <path d="M72,19 L72,33" id="Line-4" stroke="#EC6161" stroke-width="4" stroke-linecap="round"></path>
            <path d="M74,41 L74,55" id="Line-4-Copy" stroke="#EC6161" stroke-width="4" stroke-linecap="round"></path>
            <path d="M76,63 L76,77" id="Line-4-Copy-2" stroke="#EC6161" stroke-width="4" stroke-linecap="round"></path>
            <path d="M15,88 L33,88 C33.5522847,88 34,88.4477153 34,89 L34,104.477221 C34,105.029506 33.5522847,105.477221 33,105.477221 C32.8633031,105.477221 32.7280577,105.449195 32.6026174,105.394874 L24,101.669577 L24,101.669577 L15.3973826,105.394874 C14.8905768,105.614343 14.3018153,105.38141 14.082347,104.874604 C14.028026,104.749164 14,104.613918 14,104.477221 L14,89 C14,88.4477153 14.4477153,88 15,88 Z" id="Rectangle" fill="#EC6161"></path>
        </g>
    </g>
</svg>