<?xml version="1.0" encoding="UTF-8"?>
<svg width="28px" height="31px" viewBox="0 0 28 31" version="1.1" xmlns="http://www.w3.org/2000/svg" xmlns:xlink="http://www.w3.org/1999/xlink">
    <!-- Generator: Sketch 58 (84663) - https://sketch.com -->
    <title>favicon copy</title>
    <desc>Created with Sketch.</desc>
    <g id="favicon-copy" stroke="none" stroke-width="1" fill="none" fill-rule="evenodd">
        <g id="Group" transform="translate(2.000000, 2.000000)">
            <path d="M11.9985314,3.55271368e-15 C3.99951047,2.43029573 0,3.6454436 0,3.6454436 C0.0328709998,12.7975333 0,20.672146 12.1002926,26.9939744 C23.9970358,20.672146 24.0298257,12.7824666 23.9970358,3.6454436 C23.9970358,3.6454436 19.9975343,2.43029573 11.9985314,3.55271368e-15 Z" id="Path-2" stroke="#FFFFFF" stroke-width="3" stroke-linejoin="round"></path>
            <path d="M18.2745911,8.1254089 C19.4886651,9.33948294 19.5045082,11.3090704 18.3436143,12.6137025 L18.204444,12.7612051 L16.565,14.4 L16.6357962,14.4701471 L12.0701471,19.0357962 L11.999,18.965 L11.9298529,19.0357962 L7.36420377,14.4701471 L7.434,14.4 L5.79555599,12.7612051 L5.66564843,12.6240701 C4.49541618,11.3195245 4.5081145,9.34270329 5.7254089,8.1254089 C6.93948294,6.91133486 8.90907041,6.89549179 10.2137025,8.05638571 L10.3612051,8.19555599 L12,9.834 L13.6387949,8.19555599 L13.7759299,8.06564843 C15.0804755,6.89541618 17.0572967,6.9081145 18.2745911,8.1254089 Z" id="Combined-Shape" fill="#FFFFFF"></path>
        </g>
    </g>
</svg>